<svg id="Layer_1" data-name="Layer 1" xmlns="http://www.w3.org/2000/svg" viewBox="0 0 1280 300"><defs><style>.cls-1{fill:#00b8d4;}.cls-2{fill:#006386;}.cls-3{fill:#cfd8dc;}</style></defs><title>opti_logoColoured</title><polygon class="cls-1" points="138.52 5.08 183.36 5.08 286.23 183.26 241.39 183.26 138.52 5.08"/><polygon class="cls-1" points="204.57 5.08 249.41 5.08 352.28 183.26 307.44 183.26 204.57 5.08"/><polygon class="cls-2" points="131.32 292.58 153.74 253.75 345.63 253.75 323.21 292.58 131.32 292.58"/><polygon class="cls-2" points="164.34 235.38 186.76 196.55 432.62 196.55 410.2 235.38 164.34 235.38"/><polygon class="cls-3" points="48.94 292.58 165.86 90.02 143.44 51.19 4.11 292.58 48.94 292.58"/><polygon class="cls-3" points="114.96 292.58 198.89 147.22 176.47 108.39 70.12 292.58 114.96 292.58"/><path class="cls-1" d="M608.21,242.09a46.84,46.84,0,0,1-4.28,20.56,40.1,40.1,0,0,1-12.23,14.91,56.1,56.1,0,0,1-19.32,9.05,108,108,0,0,1-51.06,0,56.87,56.87,0,0,1-19.45-9.05,40.47,40.47,0,0,1-12.37-14.91,50.87,50.87,0,0,1,0-41.12,40.55,40.55,0,0,1,12.37-14.91,56.87,56.87,0,0,1,19.45-9.05,108.37,108.37,0,0,1,51.06,0,56.1,56.1,0,0,1,19.32,9.05,40.18,40.18,0,0,1,12.23,14.91A46.87,46.87,0,0,1,608.21,242.09Zm-24.67,0a32.81,32.81,0,0,0-1.62-10.1,21.85,21.85,0,0,0-5.72-9.05A30.22,30.22,0,0,0,565,216.43q-7.11-2.51-18.1-2.5a64.67,64.67,0,0,0-13,1.15,39.46,39.46,0,0,0-9.67,3.19A26.67,26.67,0,0,0,517.4,223,23.92,23.92,0,0,0,513,228.9a24.5,24.5,0,0,0-2.33,6.51,33.46,33.46,0,0,0-.69,6.68,34.21,34.21,0,0,0,.69,6.78,24.64,24.64,0,0,0,2.33,6.55,23.55,23.55,0,0,0,4.41,5.82,26.27,26.27,0,0,0,6.85,4.7,39.91,39.91,0,0,0,9.67,3.16,64.67,64.67,0,0,0,13,1.15q11,0,18.1-2.5a30,30,0,0,0,11.22-6.51,21.78,21.78,0,0,0,5.72-9.05A32.76,32.76,0,0,0,583.54,242.09Z"/><path class="cls-1" d="M736.64,227.68a37.7,37.7,0,0,1-2,12.47,24,24,0,0,1-6.35,9.8A29.9,29.9,0,0,1,717,256.37a54.46,54.46,0,0,1-17,2.3H659.45v28.56H635V196.82H700a55.13,55.13,0,0,1,17,2.27,29.71,29.71,0,0,1,11.35,6.38,24,24,0,0,1,6.35,9.77A37.48,37.48,0,0,1,736.64,227.68Zm-24.68.39a14.9,14.9,0,0,0-.89-5.42,8,8,0,0,0-2.93-3.72,14.05,14.05,0,0,0-5.33-2.14,40.16,40.16,0,0,0-8.09-.69H659.45v23.29h35.27a48.52,48.52,0,0,0,8.09-.56,13.88,13.88,0,0,0,5.33-1.9,7.61,7.61,0,0,0,2.93-3.53A14.11,14.11,0,0,0,712,228.07Z"/><path class="cls-1" d="M812.09,216.49v70.74H787.68V216.49H749.31V196.82H850.52v19.67Z"/><path class="cls-1" d="M871.22,287.23V196.82h24.42v90.41Z"/><path class="cls-1" d="M1011.82,222.28q-2.57-1.25-6.78-2.83c-2.8-1-6-2-9.54-3a111.3,111.3,0,0,0-11.58-2.37,85.81,85.81,0,0,0-12.83-1c-3.51,0-6.51.11-9,.33a55.61,55.61,0,0,0-6.25.85,18.88,18.88,0,0,0-4,1.22,9.11,9.11,0,0,0-2.27,1.41,3.46,3.46,0,0,0-1,1.45,4.47,4.47,0,0,0-.23,1.32,4.27,4.27,0,0,0,2,3.45,19.12,19.12,0,0,0,5.4,2.63,80.17,80.17,0,0,0,8,2.18q4.54,1,9.64,2.1t10.53,2.37q5.43,1.29,10.53,3a75.14,75.14,0,0,1,9.64,4,36.75,36.75,0,0,1,8,5.29,23.13,23.13,0,0,1,5.4,7,20,20,0,0,1,2,9,25.12,25.12,0,0,1-2.3,11.19,24.11,24.11,0,0,1-6.15,7.9A31,31,0,0,1,1002,285a62,62,0,0,1-10.63,3,88,88,0,0,1-11.25,1.38q-5.69.33-10.82.33a131.08,131.08,0,0,1-24.84-2.21A124.88,124.88,0,0,1,924.24,282V260.38a82.33,82.33,0,0,0,20.56,7.83A103.37,103.37,0,0,0,969.51,271a79.09,79.09,0,0,0,12.67-.82,31.29,31.29,0,0,0,7.66-2.1,8.77,8.77,0,0,0,3.75-2.8,5.31,5.31,0,0,0,1-2.9,4.8,4.8,0,0,0-2-3.78,18.31,18.31,0,0,0-5.4-2.83,69.22,69.22,0,0,0-8-2.24c-3-.68-6.24-1.35-9.64-2s-6.9-1.41-10.5-2.2-7.09-1.72-10.49-2.8a75.43,75.43,0,0,1-9.64-3.75,35.11,35.11,0,0,1-8-5.06,22.29,22.29,0,0,1-5.39-6.78,19.25,19.25,0,0,1-2-8.92,23.53,23.53,0,0,1,2.11-10.33,22.43,22.43,0,0,1,5.69-7.4,30.1,30.1,0,0,1,8.29-5,55.77,55.77,0,0,1,9.91-3,83.86,83.86,0,0,1,10.53-1.45q5.33-.39,10.13-.39,5.26,0,10.82.52t11,1.48q5.4,1,10.43,2.21t9.31,2.63Z"/><path class="cls-1" d="M1164,242.09a47,47,0,0,1-4.28,20.56,40,40,0,0,1-12.24,14.91,56,56,0,0,1-19.31,9.05,108,108,0,0,1-51.06,0,56.69,56.69,0,0,1-19.45-9.05,40.47,40.47,0,0,1-12.37-14.91,50.87,50.87,0,0,1,0-41.12,40.55,40.55,0,0,1,12.37-14.91,56.69,56.69,0,0,1,19.45-9.05,108.37,108.37,0,0,1,51.06,0,56,56,0,0,1,19.31,9.05,40.11,40.11,0,0,1,12.24,14.91A47,47,0,0,1,1164,242.09Zm-24.68,0a32.79,32.79,0,0,0-1.61-10.1,21.85,21.85,0,0,0-5.72-9.05,30.38,30.38,0,0,0-11.22-6.51q-7.11-2.51-18.1-2.5a64.67,64.67,0,0,0-13,1.15,39.54,39.54,0,0,0-9.68,3.19,26.44,26.44,0,0,0-6.84,4.77,23.72,23.72,0,0,0-6.74,12.37,33.46,33.46,0,0,0-.69,6.68,34.21,34.21,0,0,0,.69,6.78,24.29,24.29,0,0,0,2.33,6.55,23.55,23.55,0,0,0,4.41,5.82,26,26,0,0,0,6.84,4.7,40,40,0,0,0,9.68,3.16,64.67,64.67,0,0,0,13,1.15q11,0,18.1-2.5a30.11,30.11,0,0,0,11.22-6.51,21.78,21.78,0,0,0,5.72-9.05A32.75,32.75,0,0,0,1139.32,242.09Z"/><path class="cls-1" d="M1271.14,216.39q-1.87-.55-4.38-1.11c-1.67-.38-3.5-.69-5.49-1a47.71,47.71,0,0,0-6.16-.39,44.72,44.72,0,0,0-12.27,1.61,51.93,51.93,0,0,0-10.63,4.28,61,61,0,0,0-9.18,6.05,95.15,95.15,0,0,0-7.79,6.94v54.42h-24.42V196.82h24.42v14.67q4.41-3.28,9-6.35a77,77,0,0,1,9.67-5.43,58.23,58.23,0,0,1,10.63-3.78,48.2,48.2,0,0,1,11.84-1.41c1.58,0,3.19.07,4.84.23s3.24.34,4.8.55,3,.47,4.38.73,2.54.52,3.55.79v20.46C1273.34,217.06,1272.39,216.77,1271.14,216.39Z"/><polygon class="cls-3" points="325.46 84.6 347.88 123.43 539.77 123.43 517.36 84.6 325.46 84.6"/><polygon class="cls-1" points="358.49 141.8 380.9 180.63 1269.66 180.63 1247.24 141.8 358.49 141.8"/></svg>